<?xml version="1.0" encoding="UTF-8" standalone="no"?>
<svg xmlns="http://www.w3.org/2000/svg" xmlns:xlink="http://www.w3.org/1999/xlink" xmlns:serif="http://www.serif.com/" width="100%" height="100%" viewBox="0 0 1200 500" version="1.1" xml:space="preserve" style="fill-rule:evenodd;clip-rule:evenodd;stroke-linejoin:round;stroke-miterlimit:2;">
    <g transform="matrix(1,0,0,1,2.27374e-13,-53)">
        <g id="Artboard2" transform="matrix(0.823211,0,0,0.725689,1328.66,14.5385)">
            <rect x="-1614" y="53" width="1457.71" height="689" style="fill:none;"></rect>
            <g transform="matrix(1.18629,0,0,0.807422,-2099.9,-361.089)">
                <g transform="matrix(1.024,0,0,1.70667,-27.136,-34.1333)">
                    <path d="M1596,366.376L1596,774.624C1596,791.941 1581.94,806 1564.62,806L488.376,806C471.059,806 457,791.941 457,774.624L457,366.376C457,349.059 471.059,335 488.376,335L1564.62,335C1581.94,335 1596,349.059 1596,366.376Z" style="fill:rgb(0,217,156);"></path>
                    <path d="M1588.54,356.477C1587.37,353.673 1588.7,350.452 1591.51,349.288C1594.31,348.125 1597.53,349.456 1598.7,352.26C1600.5,356.609 1601.5,361.377 1601.5,366.376L1601.5,377.716C1601.5,380.752 1599.04,383.216 1596,383.216C1592.96,383.216 1590.5,380.752 1590.5,377.716L1590.5,366.376C1590.5,362.87 1589.8,359.526 1588.54,356.477ZM1590.5,400.397C1590.5,397.361 1592.96,394.897 1596,394.897C1599.04,394.897 1601.5,397.361 1601.5,400.397L1601.5,423.077C1601.5,426.112 1599.04,428.577 1596,428.577C1592.96,428.577 1590.5,426.112 1590.5,423.077L1590.5,400.397ZM1590.5,445.758C1590.5,442.722 1592.96,440.258 1596,440.258C1599.04,440.258 1601.5,442.722 1601.5,445.758L1601.5,468.438C1601.5,471.473 1599.04,473.938 1596,473.938C1592.96,473.938 1590.5,471.473 1590.5,468.438L1590.5,445.758ZM1590.5,491.119C1590.5,488.083 1592.96,485.619 1596,485.619C1599.04,485.619 1601.5,488.083 1601.5,491.119L1601.5,513.799C1601.5,516.835 1599.04,519.299 1596,519.299C1592.96,519.299 1590.5,516.835 1590.5,513.799L1590.5,491.119ZM1590.5,536.479C1590.5,533.444 1592.96,530.979 1596,530.979C1599.04,530.979 1601.5,533.444 1601.5,536.479L1601.5,559.16C1601.5,562.195 1599.04,564.66 1596,564.66C1592.96,564.66 1590.5,562.195 1590.5,559.16L1590.5,536.479ZM1590.5,581.84C1590.5,578.805 1592.96,576.34 1596,576.34C1599.04,576.34 1601.5,578.805 1601.5,581.84L1601.5,604.521C1601.5,607.556 1599.04,610.021 1596,610.021C1592.96,610.021 1590.5,607.556 1590.5,604.521L1590.5,581.84ZM1590.5,627.202C1590.5,624.166 1592.96,621.702 1596,621.702C1599.04,621.702 1601.5,624.166 1601.5,627.202L1601.5,649.882C1601.5,652.918 1599.04,655.382 1596,655.382C1592.96,655.382 1590.5,652.918 1590.5,649.882L1590.5,627.202ZM1590.5,672.562C1590.5,669.526 1592.96,667.062 1596,667.062C1599.04,667.062 1601.5,669.526 1601.5,672.562L1601.5,695.242C1601.5,698.278 1599.04,700.742 1596,700.742C1592.96,700.742 1590.5,698.278 1590.5,695.242L1590.5,672.562ZM1590.5,717.923C1590.5,714.887 1592.96,712.423 1596,712.423C1599.04,712.423 1601.5,714.887 1601.5,717.923L1601.5,740.603C1601.5,743.639 1599.04,746.103 1596,746.103C1592.96,746.103 1590.5,743.639 1590.5,740.603L1590.5,717.923ZM1590.5,763.284C1590.5,760.248 1592.96,757.784 1596,757.784C1599.04,757.784 1601.5,760.248 1601.5,763.284L1601.5,774.624C1601.5,779.623 1600.5,784.391 1598.7,788.74C1597.53,791.544 1594.31,792.875 1591.51,791.712C1588.7,790.548 1587.37,787.327 1588.54,784.523C1589.8,781.474 1590.5,778.13 1590.5,774.624L1590.5,763.284ZM1574.52,798.537C1577.33,797.373 1580.55,798.704 1581.71,801.508C1582.88,804.312 1581.54,807.533 1578.74,808.696C1574.39,810.502 1569.62,811.5 1564.62,811.5L1553.41,811.5C1550.38,811.5 1547.91,809.036 1547.91,806C1547.91,802.964 1550.38,800.5 1553.41,800.5L1564.62,800.5C1568.13,800.5 1571.47,799.803 1574.52,798.537ZM1530.99,800.5C1534.03,800.5 1536.49,802.964 1536.49,806C1536.49,809.036 1534.03,811.5 1530.99,811.5L1508.57,811.5C1505.53,811.5 1503.07,809.036 1503.07,806C1503.07,802.964 1505.53,800.5 1508.57,800.5L1530.99,800.5ZM1486.15,800.5C1489.18,800.5 1491.65,802.964 1491.65,806C1491.65,809.036 1489.18,811.5 1486.15,811.5L1463.73,811.5C1460.69,811.5 1458.23,809.036 1458.23,806C1458.23,802.964 1460.69,800.5 1463.73,800.5L1486.15,800.5ZM1441.3,800.5C1444.34,800.5 1446.8,802.964 1446.8,806C1446.8,809.036 1444.34,811.5 1441.3,811.5L1418.88,811.5C1415.85,811.5 1413.38,809.036 1413.38,806C1413.38,802.964 1415.85,800.5 1418.88,800.5L1441.3,800.5ZM1396.46,800.5C1399.5,800.5 1401.96,802.964 1401.96,806C1401.96,809.036 1399.5,811.5 1396.46,811.5L1374.04,811.5C1371,811.5 1368.54,809.036 1368.54,806C1368.54,802.964 1371,800.5 1374.04,800.5L1396.46,800.5ZM1351.62,800.5C1354.65,800.5 1357.12,802.964 1357.12,806C1357.12,809.036 1354.65,811.5 1351.62,811.5L1329.19,811.5C1326.16,811.5 1323.69,809.036 1323.69,806C1323.69,802.964 1326.16,800.5 1329.19,800.5L1351.62,800.5ZM1306.77,800.5C1309.81,800.5 1312.27,802.964 1312.27,806C1312.27,809.036 1309.81,811.5 1306.77,811.5L1284.35,811.5C1281.32,811.5 1278.85,809.036 1278.85,806C1278.85,802.964 1281.32,800.5 1284.35,800.5L1306.77,800.5ZM1261.93,800.5C1264.96,800.5 1267.43,802.964 1267.43,806C1267.43,809.036 1264.96,811.5 1261.93,811.5L1239.51,811.5C1236.47,811.5 1234.01,809.036 1234.01,806C1234.01,802.964 1236.47,800.5 1239.51,800.5L1261.93,800.5ZM1217.09,800.5C1220.12,800.5 1222.59,802.964 1222.59,806C1222.59,809.036 1220.12,811.5 1217.09,811.5L1194.66,811.5C1191.63,811.5 1189.16,809.036 1189.16,806C1189.16,802.964 1191.63,800.5 1194.66,800.5L1217.09,800.5ZM1172.24,800.5C1175.28,800.5 1177.74,802.964 1177.74,806C1177.74,809.036 1175.28,811.5 1172.24,811.5L1149.82,811.5C1146.79,811.5 1144.32,809.036 1144.32,806C1144.32,802.964 1146.79,800.5 1149.82,800.5L1172.24,800.5ZM1127.4,800.5C1130.43,800.5 1132.9,802.964 1132.9,806C1132.9,809.036 1130.43,811.5 1127.4,811.5L1104.98,811.5C1101.94,811.5 1099.48,809.036 1099.48,806C1099.48,802.964 1101.94,800.5 1104.98,800.5L1127.4,800.5ZM1082.55,800.5C1085.59,800.5 1088.05,802.964 1088.05,806C1088.05,809.036 1085.59,811.5 1082.55,811.5L1060.13,811.5C1057.1,811.5 1054.63,809.036 1054.63,806C1054.63,802.964 1057.1,800.5 1060.13,800.5L1082.55,800.5ZM1037.71,800.5C1040.75,800.5 1043.21,802.964 1043.21,806C1043.21,809.036 1040.75,811.5 1037.71,811.5L1015.29,811.5C1012.25,811.5 1009.79,809.036 1009.79,806C1009.79,802.964 1012.25,800.5 1015.29,800.5L1037.71,800.5ZM992.869,800.5C995.904,800.5 998.369,802.964 998.369,806C998.369,809.036 995.904,811.5 992.869,811.5L970.447,811.5C967.411,811.5 964.947,809.036 964.947,806C964.947,802.964 967.411,800.5 970.447,800.5L992.869,800.5ZM948.023,800.5C951.058,800.5 953.523,802.964 953.523,806C953.523,809.036 951.058,811.5 948.023,811.5L925.601,811.5C922.565,811.5 920.101,809.036 920.101,806C920.101,802.964 922.565,800.5 925.601,800.5L948.023,800.5ZM903.181,800.5C906.217,800.5 908.681,802.964 908.681,806C908.681,809.036 906.217,811.5 903.181,811.5L880.759,811.5C877.724,811.5 875.259,809.036 875.259,806C875.259,802.964 877.724,800.5 880.759,800.5L903.181,800.5ZM858.337,800.5C861.373,800.5 863.837,802.964 863.837,806C863.837,809.036 861.373,811.5 858.337,811.5L835.915,811.5C832.88,811.5 830.415,809.036 830.415,806C830.415,802.964 832.88,800.5 835.915,800.5L858.337,800.5ZM813.491,800.5C816.527,800.5 818.991,802.964 818.991,806C818.991,809.036 816.527,811.5 813.491,811.5L791.069,811.5C788.034,811.5 785.569,809.036 785.569,806C785.569,802.964 788.034,800.5 791.069,800.5L813.491,800.5ZM768.649,800.5C771.684,800.5 774.149,802.964 774.149,806C774.149,809.036 771.684,811.5 768.649,811.5L746.227,811.5C743.191,811.5 740.727,809.036 740.727,806C740.727,802.964 743.191,800.5 746.227,800.5L768.649,800.5ZM723.806,800.5C726.841,800.5 729.306,802.964 729.306,806C729.306,809.036 726.841,811.5 723.806,811.5L701.384,811.5C698.348,811.5 695.884,809.036 695.884,806C695.884,802.964 698.348,800.5 701.384,800.5L723.806,800.5ZM678.961,800.5C681.997,800.5 684.461,802.964 684.461,806C684.461,809.036 681.997,811.5 678.961,811.5L656.539,811.5C653.504,811.5 651.039,809.036 651.039,806C651.039,802.964 653.504,800.5 656.539,800.5L678.961,800.5ZM634.117,800.5C637.153,800.5 639.617,802.964 639.617,806C639.617,809.036 637.153,811.5 634.117,811.5L611.695,811.5C608.66,811.5 606.195,809.036 606.195,806C606.195,802.964 608.66,800.5 611.695,800.5L634.117,800.5ZM589.274,800.5C592.31,800.5 594.774,802.964 594.774,806C594.774,809.036 592.31,811.5 589.274,811.5L566.853,811.5C563.817,811.5 561.353,809.036 561.353,806C561.353,802.964 563.817,800.5 566.853,800.5L589.274,800.5ZM544.431,800.5C547.467,800.5 549.931,802.964 549.931,806C549.931,809.036 547.467,811.5 544.431,811.5L522.01,811.5C518.974,811.5 516.51,809.036 516.51,806C516.51,802.964 518.974,800.5 522.01,800.5L544.431,800.5ZM499.587,800.5C502.622,800.5 505.087,802.964 505.087,806C505.087,809.036 502.622,811.5 499.587,811.5L488.376,811.5C483.377,811.5 478.609,810.502 474.26,808.696C471.456,807.533 470.125,804.312 471.288,801.508C472.452,798.704 475.673,797.373 478.477,798.537C481.526,799.803 484.87,800.5 488.376,800.5L499.587,800.5ZM464.463,784.523C465.627,787.327 464.296,790.548 461.492,791.712C458.688,792.875 455.467,791.544 454.304,788.74C452.498,784.391 451.5,779.623 451.5,774.624L451.5,763.284C451.5,760.248 453.964,757.784 457,757.784C460.036,757.784 462.5,760.248 462.5,763.284L462.5,774.624C462.5,778.13 463.197,781.474 464.463,784.523ZM462.5,740.603C462.5,743.639 460.036,746.103 457,746.103C453.964,746.103 451.5,743.639 451.5,740.603L451.5,717.923C451.5,714.888 453.964,712.423 457,712.423C460.036,712.423 462.5,714.888 462.5,717.923L462.5,740.603ZM462.5,695.242C462.5,698.278 460.036,700.742 457,700.742C453.964,700.742 451.5,698.278 451.5,695.242L451.5,672.562C451.5,669.527 453.964,667.062 457,667.062C460.036,667.062 462.5,669.527 462.5,672.562L462.5,695.242ZM462.5,649.881C462.5,652.917 460.036,655.381 457,655.381C453.964,655.381 451.5,652.917 451.5,649.881L451.5,627.201C451.5,624.165 453.964,621.701 457,621.701C460.036,621.701 462.5,624.165 462.5,627.201L462.5,649.881ZM462.5,604.521C462.5,607.556 460.036,610.021 457,610.021C453.964,610.021 451.5,607.556 451.5,604.521L451.5,581.84C451.5,578.805 453.964,576.34 457,576.34C460.036,576.34 462.5,578.805 462.5,581.84L462.5,604.521ZM462.5,559.16C462.5,562.195 460.036,564.66 457,564.66C453.964,564.66 451.5,562.195 451.5,559.16L451.5,536.479C451.5,533.444 453.964,530.979 457,530.979C460.036,530.979 462.5,533.444 462.5,536.479L462.5,559.16ZM462.5,513.798C462.5,516.834 460.036,519.298 457,519.298C453.964,519.298 451.5,516.834 451.5,513.798L451.5,491.118C451.5,488.082 453.964,485.618 457,485.618C460.036,485.618 462.5,488.082 462.5,491.118L462.5,513.798ZM462.5,468.438C462.5,471.474 460.036,473.938 457,473.938C453.964,473.938 451.5,471.474 451.5,468.438L451.5,445.758C451.5,442.722 453.964,440.258 457,440.258C460.036,440.258 462.5,442.722 462.5,445.758L462.5,468.438ZM462.5,423.077C462.5,426.113 460.036,428.577 457,428.577C453.964,428.577 451.5,426.113 451.5,423.077L451.5,400.397C451.5,397.361 453.964,394.897 457,394.897C460.036,394.897 462.5,397.361 462.5,400.397L462.5,423.077ZM462.5,377.716C462.5,380.752 460.036,383.216 457,383.216C453.964,383.216 451.5,380.752 451.5,377.716L451.5,366.376C451.5,361.377 452.498,356.609 454.304,352.26C455.467,349.456 458.688,348.125 461.492,349.288C464.296,350.452 465.627,353.673 464.463,356.477C463.197,359.526 462.5,362.87 462.5,366.376L462.5,377.716ZM478.477,342.463C475.673,343.627 472.452,342.296 471.288,339.492C470.125,336.688 471.456,333.467 474.26,332.304C478.609,330.498 483.377,329.5 488.376,329.5L499.587,329.5C502.622,329.5 505.087,331.964 505.087,335C505.087,338.036 502.622,340.5 499.587,340.5L488.376,340.5C484.87,340.5 481.526,341.197 478.477,342.463ZM522.009,340.5C518.973,340.5 516.509,338.036 516.509,335C516.509,331.964 518.973,329.5 522.009,329.5L544.431,329.5C547.466,329.5 549.931,331.964 549.931,335C549.931,338.036 547.466,340.5 544.431,340.5L522.009,340.5ZM566.852,340.5C563.817,340.5 561.352,338.036 561.352,335C561.352,331.964 563.817,329.5 566.852,329.5L589.273,329.5C592.309,329.5 594.773,331.964 594.773,335C594.773,338.036 592.309,340.5 589.273,340.5L566.852,340.5ZM611.697,340.5C608.661,340.5 606.197,338.036 606.197,335C606.197,331.964 608.661,329.5 611.697,329.5L634.118,329.5C637.154,329.5 639.618,331.964 639.618,335C639.618,338.036 637.154,340.5 634.118,340.5L611.697,340.5ZM656.54,340.5C653.504,340.5 651.04,338.036 651.04,335C651.04,331.964 653.504,329.5 656.54,329.5L678.961,329.5C681.997,329.5 684.461,331.964 684.461,335C684.461,338.036 681.997,340.5 678.961,340.5L656.54,340.5ZM701.383,340.5C698.348,340.5 695.883,338.036 695.883,335C695.883,331.964 698.348,329.5 701.383,329.5L723.806,329.5C726.842,329.5 729.306,331.964 729.306,335C729.306,338.036 726.842,340.5 723.806,340.5L701.383,340.5ZM746.227,340.5C743.191,340.5 740.727,338.036 740.727,335C740.727,331.964 743.191,329.5 746.227,329.5L768.648,329.5C771.684,329.5 774.148,331.964 774.148,335C774.148,338.036 771.684,340.5 768.648,340.5L746.227,340.5ZM791.07,340.5C788.035,340.5 785.57,338.036 785.57,335C785.57,331.964 788.035,329.5 791.07,329.5L813.491,329.5C816.527,329.5 818.991,331.964 818.991,335C818.991,338.036 816.527,340.5 813.491,340.5L791.07,340.5ZM835.915,340.5C832.879,340.5 830.415,338.036 830.415,335C830.415,331.964 832.879,329.5 835.915,329.5L858.337,329.5C861.373,329.5 863.837,331.964 863.837,335C863.837,338.036 861.373,340.5 858.337,340.5L835.915,340.5ZM880.758,340.5C877.722,340.5 875.258,338.036 875.258,335C875.258,331.964 877.722,329.5 880.758,329.5L903.179,329.5C906.215,329.5 908.679,331.964 908.679,335C908.679,338.036 906.215,340.5 903.179,340.5L880.758,340.5ZM925.601,340.5C922.566,340.5 920.101,338.036 920.101,335C920.101,331.964 922.566,329.5 925.601,329.5L948.023,329.5C951.058,329.5 953.523,331.964 953.523,335C953.523,338.036 951.058,340.5 948.023,340.5L925.601,340.5ZM970.446,340.5C967.411,340.5 964.946,338.036 964.946,335C964.946,331.964 967.411,329.5 970.446,329.5L992.868,329.5C995.904,329.5 998.368,331.964 998.368,335C998.368,338.036 995.904,340.5 992.868,340.5L970.446,340.5ZM1015.29,340.5C1012.25,340.5 1009.79,338.036 1009.79,335C1009.79,331.964 1012.25,329.5 1015.29,329.5L1037.71,329.5C1040.75,329.5 1043.21,331.964 1043.21,335C1043.21,338.036 1040.75,340.5 1037.71,340.5L1015.29,340.5ZM1060.13,340.5C1057.1,340.5 1054.63,338.036 1054.63,335C1054.63,331.964 1057.1,329.5 1060.13,329.5L1082.55,329.5C1085.59,329.5 1088.05,331.964 1088.05,335C1088.05,338.036 1085.59,340.5 1082.55,340.5L1060.13,340.5ZM1104.98,340.5C1101.94,340.5 1099.48,338.036 1099.48,335C1099.48,331.964 1101.94,329.5 1104.98,329.5L1127.4,329.5C1130.43,329.5 1132.9,331.964 1132.9,335C1132.9,338.036 1130.43,340.5 1127.4,340.5L1104.98,340.5ZM1149.82,340.5C1146.78,340.5 1144.32,338.036 1144.32,335C1144.32,331.964 1146.78,329.5 1149.82,329.5L1172.24,329.5C1175.28,329.5 1177.74,331.964 1177.74,335C1177.74,338.036 1175.28,340.5 1172.24,340.5L1149.82,340.5ZM1194.66,340.5C1191.63,340.5 1189.16,338.036 1189.16,335C1189.16,331.964 1191.63,329.5 1194.66,329.5L1217.09,329.5C1220.12,329.5 1222.59,331.964 1222.59,335C1222.59,338.036 1220.12,340.5 1217.09,340.5L1194.66,340.5ZM1239.51,340.5C1236.47,340.5 1234.01,338.036 1234.01,335C1234.01,331.964 1236.47,329.5 1239.51,329.5L1261.93,329.5C1264.97,329.5 1267.43,331.964 1267.43,335C1267.43,338.036 1264.97,340.5 1261.93,340.5L1239.51,340.5ZM1284.35,340.5C1281.32,340.5 1278.85,338.036 1278.85,335C1278.85,331.964 1281.32,329.5 1284.35,329.5L1306.77,329.5C1309.81,329.5 1312.27,331.964 1312.27,335C1312.27,338.036 1309.81,340.5 1306.77,340.5L1284.35,340.5ZM1329.19,340.5C1326.16,340.5 1323.69,338.036 1323.69,335C1323.69,331.964 1326.16,329.5 1329.19,329.5L1351.62,329.5C1354.65,329.5 1357.12,331.964 1357.12,335C1357.12,338.036 1354.65,340.5 1351.62,340.5L1329.19,340.5ZM1374.04,340.5C1371,340.5 1368.54,338.036 1368.54,335C1368.54,331.964 1371,329.5 1374.04,329.5L1396.46,329.5C1399.5,329.5 1401.96,331.964 1401.96,335C1401.96,338.036 1399.5,340.5 1396.46,340.5L1374.04,340.5ZM1418.88,340.5C1415.85,340.5 1413.38,338.036 1413.38,335C1413.38,331.964 1415.85,329.5 1418.88,329.5L1441.31,329.5C1444.34,329.5 1446.81,331.964 1446.81,335C1446.81,338.036 1444.34,340.5 1441.31,340.5L1418.88,340.5ZM1463.73,340.5C1460.69,340.5 1458.23,338.036 1458.23,335C1458.23,331.964 1460.69,329.5 1463.73,329.5L1486.15,329.5C1489.18,329.5 1491.65,331.964 1491.65,335C1491.65,338.036 1489.18,340.5 1486.15,340.5L1463.73,340.5ZM1508.57,340.5C1505.53,340.5 1503.07,338.036 1503.07,335C1503.07,331.964 1505.53,329.5 1508.57,329.5L1530.99,329.5C1534.03,329.5 1536.49,331.964 1536.49,335C1536.49,338.036 1534.03,340.5 1530.99,340.5L1508.57,340.5ZM1553.41,340.5C1550.38,340.5 1547.91,338.036 1547.91,335C1547.91,331.964 1550.38,329.5 1553.41,329.5L1564.62,329.5C1569.62,329.5 1574.39,330.498 1578.74,332.304C1581.54,333.467 1582.88,336.688 1581.71,339.492C1580.55,342.296 1577.33,343.627 1574.52,342.463C1571.47,341.197 1568.13,340.5 1564.62,340.5L1553.41,340.5Z"></path>
                </g>
                <g transform="matrix(1.16046,0,0,1.9341,-114.305,-51.2627)">
                    <path d="M556.223,490L556.223,385.291L519.433,385.291L519.433,348.313L630.934,348.313L630.934,385.291L593.39,385.291L593.39,490L556.223,490ZM656.404,490L656.404,348.501L716.022,348.501C744.699,348.501 768.094,371.896 768.094,400.573C768.094,415.666 761.491,429.25 751.303,438.683L781.3,490L738.473,490L716.588,452.456L693.571,452.456L693.571,490L656.404,490ZM693.571,420.383L716.588,420.383C727.908,420.383 736.964,411.515 736.964,400.195C736.964,388.876 727.908,379.82 716.588,379.82L693.571,379.82L693.571,420.383ZM937.704,419.439C937.704,458.493 906.008,490 866.954,490C827.901,490 796.394,458.493 796.394,419.439C796.394,380.386 827.901,348.501 866.954,348.501C906.008,348.501 937.704,380.386 937.704,419.439ZM900.725,419.251C900.725,400.573 885.632,385.48 866.954,385.48C848.465,385.48 833.372,400.573 833.372,419.251C833.372,437.74 848.465,453.022 866.954,453.022C885.632,453.022 900.725,437.74 900.725,419.251ZM961.287,490L961.287,348.501L978.078,348.501L1035.81,400.95L1093.35,348.501L1110.14,348.501L1110.14,490L1072.79,490L1072.79,417.364L1035.81,451.135L998.643,417.553L998.643,490L961.287,490ZM1182.03,490C1151.08,490 1129.95,469.813 1129.95,446.796L1167.69,446.796C1167.69,452.833 1173.16,457.738 1181.46,457.738C1189.01,457.738 1194.85,453.399 1194.85,446.796C1194.85,439.815 1188.44,435.664 1181.08,435.664C1153.73,435.664 1130.14,416.232 1130.14,392.083C1130.14,367.934 1151.46,348.501 1181.46,348.501C1209.76,348.501 1232.59,367.745 1232.59,391.894L1195.04,391.894C1195.04,386.046 1189.19,380.952 1181.46,380.952C1173.35,380.952 1167.88,385.291 1167.88,391.894C1167.88,398.497 1173.35,403.025 1181.46,403.025C1210.33,403.025 1232.59,422.647 1232.59,446.607C1232.59,470.756 1210.33,490 1182.03,490ZM1406.73,358.689L1385.97,379.442C1393.71,390.951 1398.24,404.723 1398.24,419.439C1398.24,458.493 1366.54,490 1327.49,490C1312.77,490 1299.19,485.472 1287.87,477.925L1270.7,495.094L1251.45,476.793L1269,459.059C1261.45,447.739 1256.92,434.155 1256.92,419.439C1256.92,380.386 1288.43,348.501 1327.49,348.501C1342.2,348.501 1355.79,353.029 1366.92,360.576L1387.86,339.634L1406.73,358.689ZM1293.9,419.251C1293.9,423.59 1294.85,427.929 1296.36,431.702L1339.94,387.744C1336.16,386.234 1331.83,385.48 1327.49,385.48C1309,385.48 1293.9,400.573 1293.9,419.251ZM1361.26,419.251C1361.26,414.723 1360.31,410.572 1358.8,406.61L1315.03,450.569C1319,452.078 1323.15,453.022 1327.49,453.022C1346.16,453.022 1361.26,437.74 1361.26,419.251Z" style="fill:white;"></path>
                    <path d="M934.615,419.439C934.615,417.366 934.522,415.313 934.339,413.286L940.491,412.731C940.69,414.941 940.792,417.179 940.792,419.439C940.792,421.701 940.69,423.939 940.491,426.148L934.339,425.592C934.522,423.566 934.615,421.514 934.615,419.439ZM897.637,419.251C897.637,417.266 897.45,415.326 897.092,413.447L903.159,412.29C903.589,414.544 903.814,416.87 903.814,419.251C903.814,421.629 903.585,423.958 903.148,426.218L897.084,425.045C897.447,423.166 897.637,421.229 897.637,419.251ZM1182.03,486.912C1184.04,486.912 1186.03,486.809 1187.98,486.608L1188.61,492.752C1186.46,492.974 1184.26,493.088 1182.03,493.088C1179.79,493.088 1177.61,492.988 1175.48,492.793L1176.05,486.642C1177.99,486.82 1179.99,486.912 1182.03,486.912ZM1296.99,419.251C1296.99,421.497 1297.27,423.743 1297.77,425.893L1299.01,424.644L1303.39,428.993L1298.55,433.877C1297.82,434.616 1296.76,434.936 1295.74,434.729C1294.72,434.522 1293.88,433.816 1293.49,432.849C1291.84,428.729 1290.82,423.989 1290.82,419.251C1290.82,416.54 1291.11,413.9 1291.66,411.357L1297.69,412.67C1297.24,414.789 1296.99,416.991 1296.99,419.251ZM1364.35,419.251C1364.35,421.964 1364.05,424.615 1363.48,427.17L1357.45,425.836C1357.92,423.711 1358.17,421.507 1358.17,419.251C1358.17,416.872 1357.88,414.608 1357.37,412.425L1356.13,413.674L1351.75,409.315L1356.62,404.431C1357.36,403.688 1358.42,403.371 1359.45,403.589C1360.47,403.807 1361.32,404.531 1361.69,405.511C1363.33,409.816 1364.35,414.33 1364.35,419.251ZM659.493,486.912L662.599,486.912L662.599,493.088L656.404,493.088L656.404,490L653.316,490L653.316,483.262L659.493,483.262L659.493,486.912ZM696.66,417.294L701.244,417.294L701.244,423.471L693.571,423.471L693.571,420.383L690.483,420.383L690.483,413.622L696.66,413.622L696.66,417.294ZM964.375,486.912L967.513,486.912L967.513,493.088L961.287,493.088L961.287,490L958.198,490L958.198,483.262L964.375,483.262L964.375,486.912ZM1402.37,358.678L1398.24,354.51L1402.63,350.164L1408.92,356.516L1406.73,358.689L1408.91,360.873L1401.99,367.791L1397.62,363.423L1402.37,358.678ZM562.417,486.912L562.417,493.088L556.223,493.088C554.517,493.088 553.135,491.706 553.135,490L553.135,483.019L559.311,483.019L559.311,486.912L562.417,486.912ZM559.311,476.039L553.135,476.039L553.135,462.078L559.311,462.078L559.311,476.039ZM559.311,455.097L553.135,455.097L553.135,441.136L559.311,441.136L559.311,455.097ZM559.311,434.155L553.135,434.155L553.135,420.194L559.311,420.194L559.311,434.155ZM559.311,413.213L553.135,413.213L553.135,399.252L559.311,399.252L559.311,413.213ZM559.311,392.272L553.135,392.272C553.135,392.272 553.135,388.379 553.135,388.379L543.96,388.379L543.96,382.202L556.223,382.202C557.929,382.202 559.311,383.585 559.311,385.291L559.311,392.272ZM531.697,382.202L531.697,388.379L519.433,388.379C517.728,388.379 516.345,386.997 516.345,385.291L516.345,372.965L522.522,372.965C522.522,372.965 522.522,382.202 522.522,382.202L531.697,382.202ZM522.522,360.639L516.345,360.639L516.345,348.313C516.345,346.607 517.728,345.224 519.433,345.224L525.628,345.224L525.628,351.401L522.522,351.401L522.522,360.639ZM531.822,351.401L531.822,345.224L544.211,345.224L544.211,351.401L531.822,351.401ZM550.406,351.401L550.406,345.224L562.795,345.224L562.795,351.401L550.406,351.401ZM568.989,351.401L568.989,345.224L581.378,345.224L581.378,351.401L568.989,351.401ZM587.573,351.401L587.573,345.224L599.962,345.224L599.962,351.401L587.573,351.401ZM606.156,351.401L606.156,345.224L618.545,345.224L618.545,351.401L606.156,351.401ZM624.74,351.401L624.74,345.224L630.934,345.224C632.64,345.224 634.023,346.607 634.023,348.313L634.023,360.639L627.846,360.639L627.846,351.401L624.74,351.401ZM627.846,372.965L634.023,372.965L634.023,385.291C634.023,386.997 632.64,388.379 630.934,388.379L624.677,388.379L624.677,382.202L627.846,382.202L627.846,372.965ZM618.42,382.202L618.42,388.379L605.905,388.379L605.905,382.202L618.42,382.202ZM599.647,382.202L599.647,388.379L596.478,388.379L596.478,392.272L590.302,392.272L590.302,385.291C590.302,383.585 591.684,382.202 593.39,382.202L599.647,382.202ZM590.302,399.252L596.478,399.252L596.478,413.213L590.302,413.213L590.302,399.252ZM590.302,420.194L596.478,420.194L596.478,434.155L590.302,434.155L590.302,420.194ZM590.302,441.136L596.478,441.136L596.478,455.097L590.302,455.097L590.302,441.136ZM590.302,462.078L596.478,462.078L596.478,476.039L590.302,476.039L590.302,462.078ZM590.302,483.019L596.478,483.019L596.478,490C596.478,491.706 595.096,493.088 593.39,493.088L587.195,493.088L587.195,486.912L590.302,486.912L590.302,483.019ZM581.001,486.912L581.001,493.088L568.612,493.088L568.612,486.912L581.001,486.912ZM659.493,476.524L653.316,476.524L653.316,463.048L659.493,463.048L659.493,476.524ZM659.493,456.31L653.316,456.31L653.316,442.834L659.493,442.834L659.493,456.31ZM659.493,436.096L653.316,436.096L653.316,422.62L659.493,422.62L659.493,436.096ZM659.493,415.882L653.316,415.882L653.316,402.406L659.493,402.406L659.493,415.882ZM659.493,395.668L653.316,395.668L653.316,382.192L659.493,382.192L659.493,395.668ZM659.493,375.453L653.316,375.453L653.316,361.977L659.493,361.977L659.493,375.453ZM659.493,355.239L653.316,355.239L653.316,348.501C653.316,346.795 654.698,345.413 656.404,345.413L663.028,345.413L663.028,351.59C663.028,351.59 659.493,351.59 659.493,351.59L659.493,355.239ZM669.653,351.59L669.653,345.413L682.901,345.413L682.901,351.59L669.653,351.59ZM689.525,351.59L689.525,345.413L702.774,345.413L702.774,351.59L689.525,351.59ZM709.398,351.59L709.398,345.413L716.022,345.413C718.5,345.413 720.941,345.578 723.334,345.897L722.517,352.02C720.391,351.736 718.223,351.59 716.022,351.59L709.398,351.59ZM728.892,353.31L730.52,347.352C735.296,348.657 739.818,350.591 743.99,353.058L740.845,358.375C737.143,356.185 733.13,354.469 728.892,353.31ZM746.217,362.052L750.035,357.197C753.879,360.219 757.314,363.74 760.241,367.66L755.292,371.356C752.689,367.87 749.635,364.74 746.217,362.052ZM758.834,376.818L764.228,373.808C766.587,378.037 768.407,382.605 769.592,387.418L763.594,388.895C762.543,384.624 760.928,380.57 758.834,376.818ZM764.723,395.301L770.864,394.638C771.074,396.588 771.182,398.568 771.182,400.573C771.182,403.53 770.943,406.433 770.485,409.264L764.387,408.277C764.794,405.768 765.005,403.194 765.005,400.573C765.005,398.792 764.91,397.033 764.723,395.301ZM762.917,414.609L768.826,416.409C767.383,421.145 765.317,425.609 762.737,429.707L757.51,426.415C759.801,422.777 761.636,418.813 762.917,414.609ZM753.685,431.688L758.437,435.634C757.405,436.876 756.322,438.071 755.191,439.216L757.302,442.826L751.969,445.944L748.636,440.242C747.905,438.991 748.142,437.401 749.204,436.417C750.795,434.944 752.293,433.364 753.685,431.688ZM755.303,451.645L760.635,448.528L767.301,459.932L761.969,463.049L755.303,451.645ZM765.302,468.751L770.634,465.634L777.301,477.038L771.968,480.155L765.302,468.751ZM775.301,485.857L780.634,482.739L783.967,488.441C784.525,489.397 784.53,490.577 783.979,491.537C783.429,492.497 782.407,493.088 781.3,493.088L774.163,493.088L774.163,486.912C774.163,486.912 775.918,486.912 775.918,486.912L775.301,485.857ZM767.025,486.912L767.025,493.088L752.749,493.088L752.749,486.912L767.025,486.912ZM745.611,486.912L745.611,493.088L738.473,493.088C737.375,493.088 736.359,492.505 735.805,491.555L732.158,485.298L737.494,482.187L740.248,486.912L745.611,486.912ZM733.847,475.93L728.51,479.041L721.215,466.526L726.552,463.415L733.847,475.93ZM722.904,457.158L717.568,460.268C717.568,460.268 714.814,455.544 714.814,455.544L708.916,455.544L708.916,449.367L716.588,449.367C717.687,449.367 718.703,449.951 719.256,450.9L722.904,457.158ZM701.244,449.367L701.244,455.544C701.244,455.544 696.66,455.544 696.66,455.544L696.66,458.713L690.483,458.713L690.483,452.456C690.483,450.75 691.865,449.367 693.571,449.367L701.244,449.367ZM690.483,464.97L696.66,464.97L696.66,477.485L690.483,477.485L690.483,464.97ZM690.483,483.743L696.66,483.743L696.66,490C696.66,491.706 695.277,493.088 693.571,493.088L687.377,493.088L687.377,486.912C687.377,486.912 690.483,486.912 690.483,486.912L690.483,483.743ZM681.182,486.912L681.182,493.088L668.793,493.088L668.793,486.912L681.182,486.912ZM708.916,423.471L708.916,417.294L716.588,417.294C718.679,417.294 720.68,416.941 722.531,416.287L724.59,422.11C722.097,422.991 719.404,423.471 716.588,423.471L708.916,423.471ZM731.681,418.096L727.745,413.337C730.793,410.815 732.931,407.253 733.628,403.152L739.718,404.187C738.765,409.789 735.845,414.653 731.681,418.096ZM739.695,396.064L733.611,397.132C732.892,393.037 730.75,389.457 727.707,386.912L731.668,382.173C735.806,385.632 738.718,390.499 739.695,396.064ZM724.601,378.119L722.51,383.931C720.666,383.268 718.672,382.908 716.588,382.908L708.916,382.908L708.916,376.731L716.588,376.731C719.408,376.731 722.105,377.221 724.601,378.119ZM701.244,376.731L701.244,382.908L696.66,382.908L696.66,386.58L690.483,386.58L690.483,379.82C690.483,378.114 691.865,376.731 693.571,376.731L701.244,376.731ZM690.483,393.341L696.66,393.341L696.66,406.862L690.483,406.862L690.483,393.341ZM933.507,431.691L939.582,432.805C938.763,437.27 937.542,441.592 935.957,445.734L930.188,443.527C931.639,439.735 932.757,435.778 933.507,431.691ZM927.727,449.166L933.269,451.894C931.28,455.935 928.93,459.766 926.263,463.346L921.31,459.655C923.753,456.376 925.905,452.867 927.727,449.166ZM917.411,464.42L922.009,468.545C919.018,471.878 915.727,474.938 912.179,477.681L908.4,472.794C911.653,470.28 914.67,467.475 917.411,464.42ZM903.364,476.335L906.683,481.544C902.925,483.939 898.934,486.004 894.753,487.697L892.434,481.972C896.265,480.421 899.921,478.529 903.364,476.335ZM886.63,484.02L888.416,489.933C884.181,491.212 879.786,492.123 875.267,492.627L874.582,486.489C878.722,486.026 882.75,485.192 886.63,484.02ZM868.435,486.896L868.567,493.071C868.031,493.083 867.493,493.088 866.954,493.088C862.946,493.088 859.014,492.77 855.182,492.158L856.157,486.058C859.672,486.62 863.278,486.912 866.954,486.912C867.449,486.912 867.943,486.906 868.435,486.896ZM850.131,484.81L848.603,490.795C844.213,489.675 839.983,488.161 835.952,486.295L838.548,480.69C842.239,482.399 846.112,483.784 850.131,484.81ZM833.088,477.85L829.99,483.194C826.099,480.938 822.435,478.337 819.04,475.43L823.056,470.738C826.167,473.4 829.523,475.784 833.088,477.85ZM818.567,466.526L814.14,470.834C811.019,467.627 808.19,464.136 805.692,460.402L810.827,456.969C813.115,460.389 815.708,463.588 818.567,466.526ZM807.643,451.702L802.216,454.652C800.091,450.743 798.309,446.618 796.911,442.318L802.785,440.408C804.065,444.345 805.696,448.122 807.643,451.702ZM801.153,434.475L795.128,435.838C794.155,431.536 793.556,427.089 793.369,422.534L799.54,422.28C799.712,426.455 800.26,430.531 801.153,434.475ZM799.562,416.118L793.392,415.821C793.611,411.274 794.239,406.831 795.241,402.531L801.256,403.932C800.338,407.875 799.762,411.948 799.562,416.118ZM802.924,398.006L797.061,396.064C798.482,391.776 800.282,387.661 802.423,383.759L807.838,386.73C805.876,390.306 804.226,394.077 802.924,398.006ZM811.041,381.472L805.916,378.023C808.423,374.298 811.259,370.814 814.381,367.612L818.803,371.925C815.94,374.861 813.34,378.056 811.041,381.472ZM823.298,367.716L819.284,363.021C822.682,360.116 826.346,357.515 830.235,355.261L833.333,360.605C829.769,362.671 826.411,365.054 823.298,367.716ZM838.793,357.766L836.198,352.161C840.232,350.294 844.464,348.782 848.853,347.666L850.375,353.653C846.357,354.674 842.485,356.057 838.793,357.766ZM856.401,352.414L855.437,346.313C859.189,345.721 863.035,345.413 866.954,345.413C867.581,345.413 868.207,345.421 868.83,345.436L868.675,351.611C868.103,351.597 867.53,351.59 866.954,351.59C863.363,351.59 859.838,351.871 856.401,352.414ZM874.816,352.045L875.531,345.909C880.047,346.435 884.439,347.372 888.669,348.679L886.845,354.581C882.972,353.383 878.951,352.526 874.816,352.045ZM892.634,356.666L894.992,350.957C899.159,352.679 903.135,354.771 906.879,357.194L903.524,362.38C900.093,360.16 896.451,358.243 892.634,356.666ZM908.536,365.956L912.347,361.094C915.875,363.86 919.146,366.939 922.118,370.289L917.498,374.388C914.771,371.316 911.772,368.492 908.536,365.956ZM921.374,379.175L926.344,375.508C928.994,379.099 931.327,382.938 933.304,386.981L927.754,389.694C925.942,385.986 923.803,382.467 921.374,379.175ZM930.203,395.341L935.976,393.145C937.554,397.292 938.769,401.615 939.585,406.075L933.509,407.186C932.762,403.1 931.648,399.14 930.203,395.341ZM901.199,405.571L895.462,407.859C894.004,404.206 891.866,400.902 889.202,398.101L893.679,393.844C896.879,397.21 899.448,401.181 901.199,405.571ZM888.401,389.254L884.807,394.277C881.684,392.043 878.123,390.38 874.275,389.442L875.738,383.441C880.364,384.569 884.646,386.567 888.401,389.254ZM868.815,382.437L868.509,388.606C867.994,388.581 867.476,388.568 866.954,388.568C863.486,388.568 860.15,389.153 857.039,390.231L855.016,384.394C858.762,383.096 862.779,382.391 866.954,382.391C867.578,382.391 868.199,382.407 868.815,382.437ZM848.651,387.313L851.752,392.655C848.377,394.615 845.407,397.206 843.003,400.269L838.144,396.456C841.03,392.778 844.597,389.667 848.651,387.313ZM834.366,402.343L839.857,405.171C838.113,408.559 836.978,412.316 836.6,416.297L830.451,415.713C830.905,410.929 832.269,406.414 834.366,402.343ZM830.445,422.704L836.595,422.126C836.968,426.09 838.106,429.849 839.857,433.246L834.366,436.076C832.261,431.991 830.894,427.472 830.445,422.704ZM838.14,441.96L843.004,438.153C845.404,441.219 848.369,443.823 851.739,445.797L848.617,451.126C844.575,448.759 841.019,445.637 838.14,441.96ZM854.97,454.071L857.016,448.243C860.133,449.338 863.478,449.933 866.954,449.933C867.463,449.933 867.968,449.921 868.47,449.896L868.773,456.066C868.17,456.095 867.564,456.11 866.954,456.11C862.762,456.11 858.729,455.391 854.97,454.071ZM875.699,455.059L874.23,449.059C878.074,448.118 881.633,446.447 884.755,444.208L888.355,449.228C884.6,451.92 880.321,453.927 875.699,455.059ZM893.627,444.638L889.152,440.38C891.823,437.573 893.97,434.268 895.437,430.626L901.167,432.933C899.407,437.303 896.832,441.27 893.627,444.638ZM964.375,476.524L958.198,476.524L958.198,463.048L964.375,463.048L964.375,476.524ZM964.375,456.31L958.198,456.31L958.198,442.834L964.375,442.834L964.375,456.31ZM964.375,436.096L958.198,436.096L958.198,422.62L964.375,422.62L964.375,436.096ZM964.375,415.882L958.198,415.882L958.198,402.406L964.375,402.406L964.375,415.882ZM964.375,395.668L958.198,395.668L958.198,382.192L964.375,382.192L964.375,395.668ZM964.375,375.453L958.198,375.453L958.198,361.977L964.375,361.977L964.375,375.453ZM964.375,355.239L958.198,355.239L958.198,348.501C958.198,346.795 959.581,345.413 961.287,345.413L978.078,345.413C978.846,345.413 979.586,345.699 980.155,346.215L984.966,350.586L980.812,355.158L976.885,351.59C976.885,351.59 964.375,351.59 964.375,351.59L964.375,355.239ZM985.623,359.529L989.777,354.957L999.399,363.698L995.245,368.27L985.623,359.529ZM1000.06,372.641L1004.21,368.069L1013.83,376.81L1009.68,381.382L1000.06,372.641ZM1014.49,385.753L1018.64,381.181L1028.26,389.923L1024.11,394.494L1014.49,385.753ZM1028.92,398.865L1033.08,394.293L1035.81,396.774L1038.52,394.297L1042.68,398.862L1037.89,403.233C1036.71,404.306 1034.91,404.307 1033.73,403.236L1028.92,398.865ZM1047.48,394.491L1043.32,389.926L1052.91,381.185L1057.07,385.75L1047.48,394.491ZM1061.87,381.379L1057.7,376.814L1067.3,368.072L1071.46,372.637L1061.87,381.379ZM1076.25,368.267L1072.09,363.702L1081.68,354.96L1085.84,359.525L1076.25,368.267ZM1090.64,355.154L1086.48,350.589L1091.27,346.219C1091.84,345.7 1092.58,345.413 1093.35,345.413L1110.14,345.413C1111.85,345.413 1113.23,346.795 1113.23,348.501L1113.23,355.239L1107.06,355.239C1107.06,355.239 1107.06,351.59 1107.06,351.59L1094.55,351.59L1090.64,355.154ZM1107.06,361.977L1113.23,361.977L1113.23,375.453L1107.06,375.453L1107.06,361.977ZM1107.06,382.191L1113.23,382.191L1113.23,395.667L1107.06,395.667L1107.06,382.191ZM1107.06,402.406L1113.23,402.406L1113.23,415.882L1107.06,415.882L1107.06,402.406ZM1107.06,422.619L1113.23,422.619L1113.23,436.096L1107.06,436.096L1107.06,422.619ZM1107.06,442.834L1113.23,442.834L1113.23,456.31L1107.06,456.31L1107.06,442.834ZM1107.06,463.048L1113.23,463.048L1113.23,476.524L1107.06,476.524L1107.06,463.048ZM1107.06,483.262L1113.23,483.262L1113.23,490C1113.23,491.706 1111.85,493.088 1110.14,493.088L1103.92,493.088L1103.92,486.912C1103.92,486.912 1107.06,486.912 1107.06,486.912L1107.06,483.262ZM1097.69,486.912L1097.69,493.088L1085.24,493.088L1085.24,486.912L1097.69,486.912ZM1079.01,486.912L1079.01,493.088L1072.79,493.088C1071.08,493.088 1069.7,491.706 1069.7,490L1069.7,481.929L1075.88,481.929C1075.88,481.929 1075.88,486.912 1075.88,486.912L1079.01,486.912ZM1075.88,473.859L1069.7,473.859L1069.7,457.717L1075.88,457.717L1075.88,473.859ZM1075.88,449.647L1069.7,449.647L1069.7,433.505L1075.88,433.505L1075.88,449.647ZM1075.88,425.435L1069.7,425.435L1069.7,424.367L1068.71,425.273L1064.54,420.712L1070.7,415.083C1071.61,414.258 1072.91,414.044 1074.03,414.538C1075.15,415.032 1075.88,416.14 1075.88,417.364L1075.88,425.435ZM1058.38,426.34L1062.55,430.901L1050.22,442.159L1046.05,437.598L1058.38,426.34ZM1039.89,443.226L1044.06,447.787L1037.89,453.415C1036.72,454.488 1034.92,454.493 1033.74,453.427L1027.55,447.829L1031.69,443.246C1031.69,443.246 1035.8,446.963 1035.8,446.963L1039.89,443.226ZM1025.49,437.649L1021.35,442.232L1008.96,431.038L1013.1,426.455L1025.49,437.649ZM1006.91,420.858L1002.77,425.441L1001.73,424.506L1001.73,425.602L995.554,425.602L995.554,417.553C995.554,416.332 996.273,415.226 997.389,414.73C998.505,414.235 999.807,414.443 1000.71,415.261L1006.91,420.858ZM995.554,433.652L1001.73,433.652L1001.73,449.751L995.554,449.751L995.554,433.652ZM995.554,457.801L1001.73,457.801L1001.73,473.901L995.554,473.901L995.554,457.801ZM995.554,481.95L1001.73,481.95L1001.73,490C1001.73,491.706 1000.35,493.088 998.643,493.088L992.417,493.088L992.417,486.912L995.554,486.912L995.554,481.95ZM986.191,486.912L986.191,493.088L973.739,493.088L973.739,486.912L986.191,486.912ZM1170.14,485.812L1168.98,491.879C1164.48,491.019 1160.26,489.72 1156.37,488.052L1158.8,482.374C1162.3,483.874 1166.09,485.038 1170.14,485.812ZM1153.52,479.738L1150.43,485.089C1146.45,482.793 1142.91,480.074 1139.85,477.027L1144.21,472.652C1146.9,475.332 1150.02,477.719 1153.52,479.738ZM1140.39,468.261L1135.45,471.97C1132.7,468.31 1130.56,464.318 1129.11,460.111L1134.95,458.094C1136.19,461.702 1138.03,465.122 1140.39,468.261ZM1133.52,452.521L1127.43,453.55C1127.06,451.334 1126.87,449.078 1126.87,446.796C1126.87,445.09 1128.25,443.707 1129.95,443.707L1136.24,443.707L1136.24,449.884C1136.24,449.884 1133.18,449.884 1133.18,449.884C1133.26,450.77 1133.38,451.649 1133.52,452.521ZM1142.53,449.884L1142.53,443.707L1155.11,443.707L1155.11,449.884L1142.53,449.884ZM1161.4,449.884L1161.4,443.707L1167.69,443.707C1169.39,443.707 1170.78,445.09 1170.78,446.796C1170.78,448.264 1171.25,449.634 1172.12,450.79L1167.17,454.493C1166.13,453.1 1165.38,451.545 1164.97,449.884L1161.4,449.884ZM1173.35,459.248L1175.8,453.575C1177.41,454.27 1179.32,454.65 1181.46,454.65C1183.05,454.65 1184.56,454.421 1185.91,453.98L1187.83,459.851C1185.89,460.483 1183.74,460.827 1181.46,460.827C1178.4,460.827 1175.66,460.244 1173.35,459.248ZM1194.41,455.783L1189.91,451.552C1191.08,450.301 1191.77,448.68 1191.77,446.796C1191.77,445.553 1191.48,444.437 1190.96,443.469L1196.4,440.539C1197.38,442.363 1197.94,444.456 1197.94,446.796C1197.94,450.36 1196.63,453.418 1194.41,455.783ZM1190.78,434.966L1187.76,440.354C1185.87,439.295 1183.54,438.753 1181.08,438.753C1179.66,438.753 1178.24,438.703 1176.84,438.604L1177.27,432.443C1178.53,432.531 1179.8,432.576 1181.08,432.576C1184.65,432.576 1188.03,433.425 1190.78,434.966ZM1171.38,431.705L1170.28,437.783C1165.86,436.983 1161.61,435.703 1157.62,434.009L1160.03,428.323C1163.61,429.841 1167.42,430.988 1171.38,431.705ZM1154.73,425.704L1151.68,431.076C1147.74,428.843 1144.15,426.182 1141.01,423.172L1145.28,418.707C1148.06,421.374 1151.24,423.727 1154.73,425.704ZM1141.33,414.389L1136.49,418.235C1133.66,414.674 1131.38,410.764 1129.77,406.597L1135.54,404.374C1136.92,407.961 1138.89,411.324 1141.33,414.389ZM1133.92,398.853L1127.86,400.09C1127.33,397.489 1127.05,394.814 1127.05,392.083C1127.05,390.226 1127.17,388.394 1127.4,386.594L1133.53,387.375C1133.33,388.919 1133.23,390.49 1133.23,392.083C1133.23,394.392 1133.47,396.653 1133.92,398.853ZM1134.71,381.719L1128.78,379.978C1130.06,375.644 1132.01,371.56 1134.56,367.819L1139.66,371.299C1137.48,374.505 1135.8,378.005 1134.71,381.719ZM1143.29,366.753L1138.75,362.56C1141.71,359.36 1145.17,356.511 1149.07,354.098L1152.32,359.352C1148.91,361.463 1145.88,363.952 1143.29,366.753ZM1157.52,356.57L1154.93,350.958C1158.81,349.177 1163.01,347.783 1167.49,346.837L1168.76,352.881C1164.75,353.728 1160.98,354.974 1157.52,356.57ZM1174.65,351.949L1173.99,345.808C1176.41,345.547 1178.91,345.413 1181.46,345.413C1183.37,345.413 1185.26,345.497 1187.12,345.66L1186.58,351.813C1184.9,351.665 1183.19,351.59 1181.46,351.59C1179.13,351.59 1176.86,351.712 1174.65,351.949ZM1192.47,352.642L1193.65,346.579C1198.09,347.444 1202.32,348.772 1206.26,350.499L1203.78,356.156C1200.25,354.607 1196.45,353.418 1192.47,352.642ZM1209.05,358.839L1212.17,353.511C1216.1,355.813 1219.64,358.545 1222.72,361.627L1218.34,365.99C1215.63,363.273 1212.51,360.868 1209.05,358.839ZM1222.17,370.397L1227.11,366.694C1229.84,370.332 1231.98,374.321 1233.44,378.567L1227.61,380.578C1226.35,376.936 1224.51,373.518 1222.17,370.397ZM1229.02,386.157L1235.12,385.137C1235.49,387.342 1235.68,389.597 1235.68,391.894C1235.68,393.6 1234.29,394.983 1232.59,394.983L1226.33,394.983L1226.33,388.806C1226.33,388.806 1229.36,388.806 1229.36,388.806C1229.28,387.914 1229.17,387.031 1229.02,386.157ZM1220.07,388.806L1220.07,394.983L1207.56,394.983L1207.56,388.806L1220.07,388.806ZM1201.3,388.806L1201.3,394.983L1195.04,394.983C1193.34,394.983 1191.95,393.6 1191.95,391.894C1191.95,390.477 1191.42,389.134 1190.53,387.984L1195.41,384.195C1196.5,385.599 1197.28,387.158 1197.72,388.806L1201.3,388.806ZM1189.29,379.489L1186.77,385.128C1185.21,384.433 1183.41,384.04 1181.46,384.04C1179.71,384.04 1178.1,384.272 1176.69,384.727L1174.8,378.846C1176.78,378.211 1179.01,377.863 1181.46,377.863C1184.34,377.863 1186.99,378.463 1189.29,379.489ZM1168.18,382.954L1172.73,387.126C1171.58,388.38 1170.96,390.008 1170.96,391.894C1170.96,393.162 1171.24,394.324 1171.77,395.34L1166.29,398.2C1165.32,396.338 1164.79,394.217 1164.79,391.894C1164.79,388.348 1166.02,385.311 1168.18,382.954ZM1171.91,403.846L1174.91,398.442C1176.68,399.424 1178.91,399.937 1181.46,399.937C1182.95,399.937 1184.42,399.987 1185.87,400.084L1185.45,406.247C1184.14,406.159 1182.81,406.114 1181.46,406.114C1177.74,406.114 1174.5,405.279 1171.91,403.846ZM1191.37,406.951L1192.42,400.863C1196.9,401.634 1201.15,402.87 1205.12,404.505L1202.77,410.216C1199.21,408.749 1195.39,407.642 1191.37,406.951ZM1208.09,412.783L1211.1,407.388C1215.08,409.609 1218.69,412.265 1221.83,415.274L1217.55,419.734C1214.78,417.081 1211.61,414.742 1208.09,412.783ZM1221.48,424.058L1226.34,420.236C1229.15,423.813 1231.4,427.743 1232.99,431.928L1227.21,434.114C1225.85,430.514 1223.91,427.136 1221.48,424.058ZM1228.81,439.659L1234.86,438.438C1235.4,441.093 1235.68,443.823 1235.68,446.607C1235.68,448.411 1235.56,450.19 1235.34,451.938L1229.21,451.151C1229.4,449.661 1229.5,448.145 1229.5,446.607C1229.5,444.239 1229.26,441.917 1228.81,439.659ZM1228.01,456.794L1233.93,458.566C1232.63,462.893 1230.64,466.968 1228.07,470.698L1222.99,467.186C1225.19,463.99 1226.9,460.501 1228.01,456.794ZM1219.33,471.726L1223.85,475.933C1220.88,479.133 1217.41,481.98 1213.54,484.39L1210.28,479.147C1213.67,477.031 1216.72,474.535 1219.33,471.726ZM1205.08,481.956L1207.69,487.555C1203.79,489.373 1199.58,490.786 1195.14,491.729L1193.85,485.687C1197.83,484.843 1201.59,483.581 1205.08,481.956ZM1390.71,370.341L1395.07,374.708C1395.07,374.708 1389.92,379.86 1389.92,379.859C1390.67,381.057 1391.39,382.277 1392.07,383.517L1386.66,386.493C1385.65,384.667 1384.57,382.89 1383.41,381.165C1382.59,379.94 1382.74,378.302 1383.79,377.258L1390.71,370.341ZM1389.41,392.087L1395.07,389.61C1396.88,393.732 1398.32,398.039 1399.37,402.49L1393.35,403.901C1392.39,399.819 1391.07,395.869 1389.41,392.087ZM1394.5,410.025L1400.61,409.172C1401.08,412.533 1401.32,415.961 1401.32,419.439C1401.32,420.544 1401.3,421.642 1401.25,422.735L1395.08,422.463C1395.12,421.461 1395.15,420.453 1395.15,419.439C1395.15,416.25 1394.92,413.107 1394.5,410.025ZM1394.52,428.669L1400.64,429.505C1400.02,434.064 1398.98,438.489 1397.56,442.739L1391.7,440.785C1393,436.893 1393.95,432.843 1394.52,428.669ZM1389.46,446.594L1395.11,449.084C1393.27,453.26 1391.05,457.231 1388.5,460.955L1383.41,457.465C1385.74,454.054 1387.77,450.417 1389.46,446.594ZM1379.65,462.438L1384.41,466.382C1381.51,469.872 1378.3,473.091 1374.81,475.994L1370.86,471.248C1374.05,468.587 1377,465.637 1379.65,462.438ZM1365.89,475.012L1369.39,480.1C1365.68,482.659 1361.71,484.885 1357.54,486.738L1355.04,481.094C1358.85,479.396 1362.49,477.356 1365.89,475.012ZM1349.23,483.358L1351.21,489.21C1346.96,490.644 1342.55,491.703 1337.99,492.349L1337.12,486.234C1341.3,485.642 1345.34,484.671 1349.23,483.358ZM1330.92,486.826L1331.23,492.996C1329.99,493.057 1328.74,493.088 1327.49,493.088C1324.15,493.088 1320.87,492.866 1317.66,492.436L1318.48,486.314C1321.42,486.707 1324.43,486.912 1327.49,486.912C1328.64,486.912 1329.78,486.883 1330.92,486.826ZM1312.35,485.204L1310.97,491.224C1306.5,490.199 1302.19,488.77 1298.07,486.986L1300.52,481.318C1304.3,482.954 1308.25,484.264 1312.35,485.204ZM1294.92,478.583L1291.96,484.007C1290.72,483.327 1289.49,482.614 1288.29,481.869L1284.33,485.832L1279.96,481.464L1285.68,475.742C1286.72,474.701 1288.35,474.539 1289.58,475.356C1291.31,476.507 1293.09,477.584 1294.92,478.583ZM1274.24,487.187L1278.6,491.555L1272.88,497.278C1271.7,498.463 1269.78,498.487 1268.57,497.332L1262.15,491.232L1266.41,486.756L1270.64,490.78L1274.24,487.187ZM1260,480.656L1255.74,485.132L1249.33,479.031C1248.72,478.46 1248.38,477.67 1248.37,476.84C1248.35,476.011 1248.67,475.211 1249.26,474.621L1255.11,468.71L1259.5,473.054L1255.87,476.726L1260,480.656ZM1265.35,467.143L1260.96,462.798C1260.96,462.798 1265.06,458.647 1265.06,458.647C1264.32,457.445 1263.61,456.221 1262.93,454.976L1268.35,452.019C1269.35,453.846 1270.42,455.623 1271.57,457.346C1272.38,458.566 1272.23,460.189 1271.19,461.231L1265.35,467.143ZM1265.62,446.429L1259.95,448.887C1258.17,444.779 1256.74,440.478 1255.72,436.019L1261.74,434.633C1262.68,438.72 1263.99,442.663 1265.62,446.429ZM1260.62,428.52L1254.5,429.346C1254.06,426.108 1253.84,422.802 1253.84,419.439C1253.84,418.223 1253.87,417.014 1253.92,415.812L1260.09,416.11C1260.04,417.213 1260.01,418.323 1260.01,419.439C1260.01,422.522 1260.22,425.553 1260.62,428.52ZM1260.67,409.919L1254.56,409.063C1255.19,404.523 1256.24,400.113 1257.66,395.873L1263.51,397.831C1262.21,401.717 1261.26,405.759 1260.67,409.919ZM1265.75,392.034L1260.1,389.546C1261.93,385.382 1264.14,381.418 1266.67,377.697L1271.78,381.173C1269.45,384.583 1267.43,388.217 1265.75,392.034ZM1275.5,376.198L1270.74,372.272C1273.61,368.778 1276.8,365.553 1280.26,362.642L1284.24,367.368C1281.07,370.038 1278.14,372.995 1275.5,376.198ZM1289.17,363.589L1285.65,358.518C1289.35,355.945 1293.29,353.704 1297.44,351.837L1299.97,357.47C1296.17,359.18 1292.56,361.233 1289.17,363.589ZM1305.75,355.188L1303.75,349.343C1307.98,347.895 1312.39,346.823 1316.93,346.168L1317.81,352.281C1313.66,352.881 1309.62,353.862 1305.75,355.188ZM1324,351.679L1323.68,345.51C1324.94,345.445 1326.21,345.413 1327.49,345.413C1330.79,345.413 1334.04,345.631 1337.22,346.053L1336.41,352.176C1333.49,351.79 1330.51,351.59 1327.49,351.59C1326.32,351.59 1325.15,351.62 1324,351.679ZM1342.52,353.277L1343.89,347.255C1348.37,348.276 1352.67,349.702 1356.77,351.485L1354.31,357.149C1350.56,355.517 1346.61,354.211 1342.52,353.277ZM1359.89,359.888L1362.86,354.477C1364.1,355.158 1365.32,355.872 1366.51,356.62L1371.71,351.411L1376.08,355.779L1369.1,362.76C1368.05,363.807 1366.41,363.963 1365.18,363.132C1363.48,361.975 1361.71,360.891 1359.89,359.888ZM1383.06,348.798L1378.69,344.431L1385.67,337.45C1386.26,336.869 1387.05,336.543 1387.87,336.545C1388.69,336.548 1389.48,336.877 1390.05,337.461L1396.34,343.813L1391.95,348.159L1387.85,344.013L1383.06,348.798ZM1308.23,424.108L1303.85,419.759L1313.53,409.991L1317.92,414.34L1308.23,424.108ZM1322.76,409.455L1318.38,405.106L1328.06,395.338L1332.45,399.687L1322.76,409.455ZM1337.29,394.802L1332.9,390.453C1332.9,390.453 1334.12,389.227 1334.12,389.228C1333.57,389.115 1333.01,389.016 1332.45,388.932L1333.36,382.823C1336.06,383.227 1338.68,383.914 1341.09,384.876C1342.05,385.261 1342.75,386.102 1342.96,387.116C1343.17,388.13 1342.86,389.182 1342.13,389.918L1337.29,394.802ZM1325.46,382.446L1325.8,388.614C1321.26,388.864 1316.97,390.118 1313.16,392.163L1310.24,386.721C1314.83,384.259 1319.99,382.747 1325.46,382.446ZM1303.69,391.215L1307.71,395.903C1304.38,398.768 1301.65,402.344 1299.79,406.401L1294.18,403.821C1296.42,398.95 1299.68,394.655 1303.69,391.215ZM1346.89,414.2L1351.27,418.558L1341.54,428.326L1337.16,423.968L1346.89,414.2ZM1332.3,428.852L1336.68,433.211L1326.95,442.979L1322.57,438.621L1332.3,428.852ZM1317.71,443.505L1322.09,447.864C1322.09,447.864 1320.82,449.134 1320.82,449.134C1321.41,449.272 1322,449.394 1322.6,449.498L1321.53,455.582C1318.93,455.127 1316.4,454.394 1313.93,453.455C1312.96,453.083 1312.23,452.241 1312.02,451.218C1311.8,450.196 1312.11,449.131 1312.85,448.39L1317.71,443.505ZM1329.51,456.055L1329.17,449.887C1333.74,449.638 1338.04,448.382 1341.86,446.343L1344.77,451.791C1340.17,454.244 1335,455.755 1329.51,456.055ZM1351.34,447.306L1347.33,442.606C1350.7,439.735 1353.44,436.155 1355.33,432.109L1360.92,434.715C1358.67,439.569 1355.38,443.863 1351.34,447.306Z"></path>
                    <path d="M567.732,678.665C596.031,678.665 618.294,659.421 618.294,635.272C618.294,611.312 596.031,591.69 567.166,591.69C559.053,591.69 553.582,587.163 553.582,580.559C553.582,573.956 559.053,569.617 567.166,569.617C574.901,569.617 580.749,574.711 580.749,580.559L618.294,580.559C618.294,556.41 595.465,537.166 567.166,537.166C537.168,537.166 515.849,556.599 515.849,580.748C515.849,604.897 539.432,624.33 566.788,624.33C574.146,624.33 580.561,628.48 580.561,635.461C580.561,642.064 574.712,646.403 567.166,646.403C558.864,646.403 553.393,641.498 553.393,635.461L515.66,635.461C515.66,658.478 536.79,678.665 567.732,678.665Z" style="fill-rule:nonzero;"></path>
                    <path d="M643.764,678.665L680.931,678.665L680.931,644.139L689.798,635.083L733.002,678.665L786.206,678.665L716.022,608.293L787.338,537.166L735.266,537.166L680.931,591.124L680.931,537.166L643.764,537.166L643.764,678.665Z" style="fill-rule:nonzero;"></path>
                    <path d="M792.998,678.665L829.976,678.665L838.466,660.176L896.386,660.176L905.065,678.665L942.232,678.665L875.633,537.166L859.03,537.166L792.998,678.665ZM852.993,628.858L867.52,597.728L881.859,628.858L852.993,628.858Z" style="fill-rule:nonzero;"></path>
                    <path d="M962.042,678.665L999.209,678.665L999.209,641.121L1022.41,641.121C1050.53,641.121 1073.73,617.726 1073.73,589.238C1073.73,560.561 1050.34,537.166 1021.66,537.166L962.042,537.166L962.042,678.665ZM999.209,609.048L999.209,568.485L1022.23,568.485C1033.55,568.485 1042.6,577.541 1042.6,588.861C1042.6,600.18 1033.55,609.048 1022.23,609.048L999.209,609.048Z" style="fill-rule:nonzero;"></path>
                    <path d="M1095.43,678.665L1183.35,678.665L1183.35,648.29L1132.6,648.29L1132.6,622.254L1177.5,622.254L1177.5,590.936L1132.6,590.936L1132.6,567.919L1183.35,567.919L1183.35,537.166L1095.43,537.166L1095.43,678.665Z" style="fill-rule:nonzero;"></path>
                    <path d="M1211.65,678.665L1248.81,678.665L1248.81,641.121L1271.83,641.121L1293.71,678.665L1336.54,678.665L1306.54,627.348C1316.73,617.915 1323.34,604.331 1323.34,589.238C1323.34,560.561 1299.94,537.166 1271.26,537.166L1211.65,537.166L1211.65,678.665ZM1248.81,609.048L1248.81,568.485L1271.83,568.485C1283.15,568.485 1292.21,577.541 1292.21,588.861C1292.21,600.18 1283.15,609.048 1271.83,609.048L1248.81,609.048Z" style="fill-rule:nonzero;"></path>
                    <path d="M1358.24,678.665L1446.16,678.665L1446.16,648.29L1395.4,648.29L1395.4,622.254L1440.31,622.254L1440.31,590.936L1395.4,590.936L1395.4,567.919L1446.16,567.919L1446.16,537.166L1358.24,537.166L1358.24,678.665Z" style="fill-rule:nonzero;"></path>
                </g>
            </g>
        </g>
    </g>
</svg>
